
<svg width="50" height="50" viewBox="0 0 50 50" fill="none" xmlns="http://www.w3.org/2000/svg">
  <rect width="50" height="50" rx="12" fill="#1EAEDB" fillOpacity="0.1"/>
  <path d="M25 10C17.268 10 11 16.268 11 24C11 31.732 17.268 38 25 38C32.732 38 39 31.732 39 24C39 16.268 32.732 10 25 10ZM25 36C18.383 36 13 30.617 13 24C13 17.383 18.383 12 25 12C31.617 12 37 17.383 37 24C37 30.617 31.617 36 25 36Z" fill="#1EAEDB"/>
  <path d="M25 15C21.141 15 18 18.141 18 22C18 23.927 18.84 25.66 20.188 26.906C20.774 27.449 21.133 28.148 21.227 28.906L21.5 31H28.5L28.773 28.906C28.867 28.148 29.227 27.449 29.812 26.906C31.16 25.66 32 23.927 32 22C32 18.141 28.859 15 25 15ZM28.039 25.078C27.133 25.906 26.551 27 26.398 28.211L26.281 29H23.719L23.602 28.211C23.449 27 22.867 25.906 21.961 25.078C20.961 24.152 20.332 23.137 20.332 22C20.332 19.43 22.43 17.332 25 17.332C27.57 17.332 29.668 19.43 29.668 22C29.668 23.137 29.039 24.152 28.039 25.078Z" fill="#1EAEDB"/>
  <path d="M21 34H29V36H21V34Z" fill="#1EAEDB"/>
</svg>
